<svg xmlns="http://www.w3.org/2000/svg" width="1200" height="868" viewBox="-23 -151 1200 868"><linearGradient id="SVGID_1_" gradientUnits="userSpaceOnUse" x1="73" y1="169" x2="354" y2="169" gradientTransform="matrix(0.8717 0.49 -0.49 0.8717 88.324 -124.681)"><stop offset="0" stop-color="#F8991D"/><stop offset="0.1384" stop-color="#F89F24"/><stop offset="0.369" stop-color="#F7AF3E"/><stop offset="0.6632" stop-color="#F7CB68"/><stop offset="1" stop-color="#F5F29E"/></linearGradient><polygon points="203 158 205 296 284 249 283 179 281 16 141 99 0 182 83 229 " fill="url(#SVGID_1_)"/><linearGradient id="SVGID_2_" gradientUnits="userSpaceOnUse" x1="941" y1="79" x2="951" y2="275" gradientTransform="matrix(0.9537 -0.3008 0.3008 0.9537 -4.6772 258.7563)"><stop offset="0" stop-color="#82C341"/><stop offset="0.1945" stop-color="#7CC042"/><stop offset="0.4631" stop-color="#69B745"/><stop offset="0.7733" stop-color="#43AB49"/><stop offset="1" stop-color="#00A14B"/></linearGradient><polygon points="1029 219 919 194 832 175 806 93 946 124 1087 155 " fill="url(#SVGID_2_)"/><linearGradient id="SVGID_3_" gradientUnits="userSpaceOnUse" x1="1004" y1="463" x2="1013" y2="640"><stop offset="0" stop-color="#C367A9"/><stop offset="0.1833" stop-color="#BD62A3"/><stop offset="0.4363" stop-color="#B25898"/><stop offset="0.7285" stop-color="#A14886"/><stop offset="1" stop-color="#8D3472"/></linearGradient><polygon points="1060 460 963 516 885 561 885 647 1010 575 1134 503 " fill="url(#SVGID_3_)"/><linearGradient id="SVGID_4_" gradientUnits="userSpaceOnUse" x1="806" y1="359" x2="580" y2="571"><stop offset="0" stop-color="#2AC5F4"/><stop offset="1" stop-color="#1C75BC"/></linearGradient><polygon points="665 503 595 382 593 382 550 456 588 524 668 665 748 524 828 382 735 382 " fill="url(#SVGID_4_)"/><linearGradient id="SVGID_5_" gradientUnits="userSpaceOnUse" x1="589" y1="70" x2="415" y2="232" gradientTransform="matrix(0.8677 0.497 -0.497 0.8677 153.2181 -235.9791)"><stop offset="0" stop-color="#283487"/><stop offset="1" stop-color="#0091D2"/></linearGradient><polygon points="628 112 627 111 506 181 506 42 433 0 434 164 434 327 576 245 629 214 " fill="url(#SVGID_5_)"/><linearGradient id="SVGID_6_" gradientUnits="userSpaceOnUse" x1="230" y1="552" x2="500" y2="552" gradientTransform="matrix(0.7922 0.6102 -0.6102 0.7922 314.9246 -138.8672)"><stop offset="0" stop-color="#F47729"/><stop offset="1" stop-color="#ED1C24"/></linearGradient><polyline points="112 579 240 526 223 659 291 712 314 554 336 396 189 458 125 485 " fill="url(#SVGID_6_)"/></svg>