<svg xmlns="http://www.w3.org/2000/svg" xmlns:xlink="http://www.w3.org/1999/xlink" width="854" height="363" viewBox="46 0 854 363"><style>.a{stop-color:#00A14B;}.b{stop-color:#ED1C24;}.c{stop-color:#F7941E;}.d{stop-color:#F78D1E;}.e{stop-color:#F47B20;}.f{stop-color:#F15A22;}.g{stop-color:#2B3990;}.h{stop-color:#2A3E93;}.i{stop-color:#294D9B;}.j{stop-color:#2963AA;}.k{stop-color:#2B81C0;}.l{stop-color:#27AAE1;}.m{stop-color:#0F9F4E;}.n{stop-color:#30975A;}.o{stop-color:#49896D;}.p{stop-color:#607680;}.q{stop-color:#755990;}.r{stop-color:#7F3F98;}</style><linearGradient id="SVGID_18_" gradientUnits="userSpaceOnUse" x1="77" y1="101" x2="274" y2="101"><stop offset="0" stop-color="#F8991D"/><stop offset="0.1384202" stop-color="#F89F24"/><stop offset="0.3689881" stop-color="#F7AF3E"/><stop offset="0.6632389" stop-color="#F7CB68"/><stop offset="1" stop-color="#F5F29E"/></linearGradient><polygon points="193 116 242 200 274 144 250 101 192 2 135 101 77 201 144 201 " fill="url(#SVGID_18_)"/><linearGradient id="SVGID_19_" gradientUnits="userSpaceOnUse" x1="754" y1="-4" x2="762" y2="133"><stop offset="0" stop-color="#82C341"/><stop offset="0.1945459" stop-color="#7CC042"/><stop offset="0.4631029" stop-color="#69B745"/><stop offset="0.7733287" stop-color="#43AB49"/><stop offset="1" class="a"/></linearGradient><polygon points="794 131 726 92 671 60 671 0 759 51 847 101 " fill="url(#SVGID_19_)"/><linearGradient id="SVGID_20_" gradientUnits="userSpaceOnUse" x1="756" y1="74" x2="763" y2="199"><stop offset="0" stop-color="#C367A9"/><stop offset="0.1832644" stop-color="#BD62A3"/><stop offset="0.43631" stop-color="#B25898"/><stop offset="0.728494" stop-color="#A14886"/><stop offset="1" stop-color="#8D3472"/></linearGradient><polygon points="796 72 727 111 673 143 673 203 760 153 848 102 " fill="url(#SVGID_20_)"/><linearGradient id="SVGID_21_" gradientUnits="userSpaceOnUse" x1="640" y1="-14" x2="481" y2="135"><stop offset="0" stop-color="#2AC5F4"/><stop offset="1" stop-color="#1C75BC"/></linearGradient><polygon points="541 87 491 2 490 2 460 54 487 101 543 201 599 101 655 2 590 2 " fill="url(#SVGID_21_)"/><linearGradient id="SVGID_22_" gradientUnits="userSpaceOnUse" x1="494" y1="5" x2="372" y2="119"><stop offset="0" stop-color="#283487"/><stop offset="1" stop-color="#0091D2"/></linearGradient><polygon points="491 2 490 2 441 87 392 2 333 2 391 101 448 201 506 101 527 64 " fill="url(#SVGID_22_)"/><linearGradient id="SVGID_23_" gradientUnits="userSpaceOnUse" x1="209" y1="101" x2="399" y2="101"><stop offset="0" stop-color="#F47729"/><stop offset="1" class="b"/></linearGradient><polyline points="242 200 291 116 338 197 399 197 343 99 288 2 233 99 209 142 " fill="url(#SVGID_23_)"/><defs><path id="SVGID_17_" d="M111 271c-4 0-6 1-8 5l-16 42c-2 5-5 13-6 17 -1-4-4-13-6-17l-17-42c-1-3-3-5-7-5 -3 0-6 2-6 5l0 63c0 2 2 4 4 4 3 0 4-1 4-4l0-25c0-13-1-29-2-35 2 6 6 19 9 26l14 35c1 3 3 4 6 4 3 0 5-1 6-4l14-35c2-6 7-19 9-25 0 6-1 23-1 36l0 25c0 2 2 4 4 4 2 0 4-1 4-4l0-63C117 273 115 270 111 271z"/></defs><clipPath id="SVGID_24_"><use xlink:href="#SVGID_17_"/></clipPath><linearGradient id="SVGID_25_" gradientUnits="userSpaceOnUse" x1="20" y1="261" x2="174" y2="366" gradientTransform="matrix(1 -0.0041 0.0041 1 -2.0785866 3.2618561)"><stop offset="0" class="c"/><stop offset="0.1425321" class="d"/><stop offset="0.3799225" class="e"/><stop offset="0.6829469" class="f"/><stop offset="1" class="b"/></linearGradient><polygon points="186 379 1 380 0 250 185 249 " style="clip-path:url(#SVGID_24_);fill:url(#SVGID_25_)"/><defs><path id="SVGID_16_" d="M170 291c-1 0-1 0-2 0 -2 0-3 1-4 2l-11 30c-1 3-2 6-3 9 -1-3-2-6-3-9L136 293c-1-2-2-2-3-2 -1 0-1 0-2 0 -2 1-3 2-3 4 0 0 0 1 0 1l19 45 -3 6c-2 4-4 8-7 8 -2 0-3-1-5-1 -1 0-1 0-2 0 -2 0-3 1-3 3 0 1 0 1 0 2 0 1 1 3 3 3 2 1 4 1 7 1 9 0 13-5 16-13L173 296c0-1 0-1 0-2C173 293 172 292 170 291z"/></defs><clipPath id="SVGID_26_"><use xlink:href="#SVGID_16_"/></clipPath><linearGradient id="SVGID_27_" gradientUnits="userSpaceOnUse" x1="20" y1="261" x2="174" y2="366" gradientTransform="matrix(1 -0.0041 0.0041 1 -2.0785866 3.2618561)"><stop offset="0" class="c"/><stop offset="0.1425321" class="d"/><stop offset="0.3799225" class="e"/><stop offset="0.6829469" class="f"/><stop offset="1" class="b"/></linearGradient><polygon points="186 379 1 380 0 250 185 249 " style="clip-path:url(#SVGID_26_);fill:url(#SVGID_27_)"/><defs><path id="SVGID_15_" d="M567 312c0 0 0 0 0-1 -1-12-9-22-22-22 -15 0-23 11-23 27 0 16 9 26 24 26 12 0 17-6 20-12 0-1 0-1 0-2 0-2-1-3-3-3 -1 0-1 0-2 0 -1 0-2 1-3 2 -2 5-6 8-12 8 -10 0-16-7-16-18l32 0C565 317 567 315 567 312zM557 310l-27 0c1-9 6-15 15-15 8 0 12 7 14 13 0 0 0 0 0 0C558 310 558 310 557 310z"/></defs><clipPath id="SVGID_28_"><use xlink:href="#SVGID_15_"/></clipPath><linearGradient id="SVGID_29_" gradientUnits="userSpaceOnUse" x1="196" y1="310" x2="576" y2="310" gradientTransform="matrix(1 -0.0041 0.0041 1 -2.0785866 3.2618561)"><stop offset="0" class="g"/><stop offset="0.1003071" class="h"/><stop offset="0.2674995" class="i"/><stop offset="0.4810061" class="j"/><stop offset="0.7324083" class="k"/><stop offset="1" class="l"/></linearGradient><polygon points="575 373 195 375 195 251 574 249 " style="clip-path:url(#SVGID_28_);fill:url(#SVGID_29_)"/><defs><path id="SVGID_14_" d="M470 290c-3 0-4 1-4 4l0 45c0 2 2 4 4 4 2 0 4-1 4-4l0-45C474 291 472 290 470 290z"/></defs><clipPath id="SVGID_30_"><use xlink:href="#SVGID_14_"/></clipPath><linearGradient id="SVGID_31_" gradientUnits="userSpaceOnUse" x1="196" y1="310" x2="576" y2="310" gradientTransform="matrix(1 -0.0041 0.0041 1 -2.0785866 3.2618561)"><stop offset="0" class="g"/><stop offset="0.1003071" class="h"/><stop offset="0.2674995" class="i"/><stop offset="0.4810061" class="j"/><stop offset="0.7324083" class="k"/><stop offset="1" class="l"/></linearGradient><polygon points="575 373 195 375 195 251 574 249 " style="clip-path:url(#SVGID_30_);fill:url(#SVGID_31_)"/><defs><path id="SVGID_13_" d="M470 269c-3 0-6 3-6 6 0 4 3 6 6 6 3 0 6-3 6-6C476 272 473 269 470 269z"/></defs><clipPath id="SVGID_32_"><use xlink:href="#SVGID_13_"/></clipPath><linearGradient id="SVGID_33_" gradientUnits="userSpaceOnUse" x1="196" y1="310" x2="576" y2="310" gradientTransform="matrix(1 -0.0041 0.0041 1 -2.0785866 3.2618561)"><stop offset="0" class="g"/><stop offset="0.1003071" class="h"/><stop offset="0.2674995" class="i"/><stop offset="0.4810061" class="j"/><stop offset="0.7324083" class="k"/><stop offset="1" class="l"/></linearGradient><polygon points="575 373 195 375 195 251 574 249 " style="clip-path:url(#SVGID_32_);fill:url(#SVGID_33_)"/><defs><path id="SVGID_12_" d="M293 270c0 0-1 0-1 0 -2 0-3 1-4 3l-11 44c-1 4-3 13-3 18 -1-5-2-13-3-18l-11-42c-1-3-3-4-6-4 -3 0-5 1-6 4l-11 42c-1 5-3 13-3 18 -1-5-2-13-3-18l-12-43c-1-2-2-3-4-3 0 0-1 0-1 0 -2 0-4 1-4 4 0 0 0 1 0 1l18 63c1 3 3 4 6 4 3 0 5-1 6-4l11-41c1-6 3-13 3-19 1 5 2 13 3 19l11 41c1 3 3 4 6 4 3 0 5-1 6-4l18-63c0 0 0-1 0-1C297 271 295 270 293 270z"/></defs><clipPath id="SVGID_34_"><use xlink:href="#SVGID_12_"/></clipPath><linearGradient id="SVGID_35_" gradientUnits="userSpaceOnUse" x1="196" y1="310" x2="576" y2="310" gradientTransform="matrix(1 -0.0041 0.0041 1 -2.0785866 3.2618561)"><stop offset="0" class="g"/><stop offset="0.1003071" class="h"/><stop offset="0.2674995" class="i"/><stop offset="0.4810061" class="j"/><stop offset="0.7324083" class="k"/><stop offset="1" class="l"/></linearGradient><polygon points="575 373 195 375 195 251 574 249 " style="clip-path:url(#SVGID_34_);fill:url(#SVGID_35_)"/><defs><path id="SVGID_11_" d="M350 313c0 0 0 0 0-1 -1-12-9-22-22-22 -15 0-23 11-23 27 0 16 9 26 24 26 12 0 17-6 20-12 0-1 0-1 0-2 0-2-1-3-3-3 -1 0-1 0-2 0 -1 0-2 1-3 2 -2 5-6 8-12 8 -10 0-15-7-16-18l32 0C348 318 350 316 350 313zM340 311l-27 0c1-9 6-15 15-15 8 0 12 7 14 13 0 0 0 0 0 0C341 311 341 311 340 311z"/></defs><clipPath id="SVGID_36_"><use xlink:href="#SVGID_11_"/></clipPath><linearGradient id="SVGID_37_" gradientUnits="userSpaceOnUse" x1="196" y1="310" x2="576" y2="310" gradientTransform="matrix(1 -0.0041 0.0041 1 -2.0785866 3.2618561)"><stop offset="0" class="g"/><stop offset="0.1003071" class="h"/><stop offset="0.2674995" class="i"/><stop offset="0.4810061" class="j"/><stop offset="0.7324083" class="k"/><stop offset="1" class="l"/></linearGradient><polygon points="575 373 195 375 195 251 574 249 " style="clip-path:url(#SVGID_36_);fill:url(#SVGID_37_)"/><defs><path id="SVGID_10_" d="M439 312l-6-1c-8-2-9-3-9-8 0-4 3-7 11-7 5 0 9 2 10 6 0 2 2 2 4 2 0 0 1 0 1 0 2 0 3-2 3-3 0 0 0-1 0-1 -2-7-9-11-19-11 -12 0-19 6-19 14 0 9 5 13 16 15l5 1c8 2 11 4 11 9 0 5-5 8-12 8 -7 0-11-3-13-8 -1-2-2-2-4-2 0 0-1 0-1 0 -2 0-3 2-3 3 0 0 0 1 0 1 2 8 9 13 21 13 13 0 20-7 20-15C456 318 451 314 439 312z"/></defs><clipPath id="SVGID_38_"><use xlink:href="#SVGID_10_"/></clipPath><linearGradient id="SVGID_39_" gradientUnits="userSpaceOnUse" x1="196" y1="310" x2="576" y2="310" gradientTransform="matrix(1 -0.0041 0.0041 1 -2.0785866 3.2618561)"><stop offset="0" class="g"/><stop offset="0.1003071" class="h"/><stop offset="0.2674995" class="i"/><stop offset="0.4810061" class="j"/><stop offset="0.7324083" class="k"/><stop offset="1" class="l"/></linearGradient><polygon points="575 373 195 375 195 251 574 249 " style="clip-path:url(#SVGID_38_);fill:url(#SVGID_39_)"/><defs><path id="SVGID_9_" d="M385 289c-8 0-14 4-17 11 0-2 0-5 0-7l0-20c0-2-2-4-4-4 -3 0-4 1-4 4l0 65c0 2 2 4 4 4 3 0 4-1 4-3l0-2c0-1 0-3 0-4 3 6 8 10 17 10 14 0 22-11 22-27C406 299 398 289 385 289zM383 335c-10 0-16-8-16-20 0-11 6-19 16-19 9 0 14 7 14 19C398 327 393 335 383 335z"/></defs><clipPath id="SVGID_40_"><use xlink:href="#SVGID_9_"/></clipPath><linearGradient id="SVGID_41_" gradientUnits="userSpaceOnUse" x1="196" y1="310" x2="576" y2="310" gradientTransform="matrix(1 -0.0041 0.0041 1 -2.0785866 3.2618561)"><stop offset="0" class="g"/><stop offset="0.1003071" class="h"/><stop offset="0.2674995" class="i"/><stop offset="0.4810061" class="j"/><stop offset="0.7324083" class="k"/><stop offset="1" class="l"/></linearGradient><polygon points="575 373 195 375 195 251 574 249 " style="clip-path:url(#SVGID_40_);fill:url(#SVGID_41_)"/><defs><path id="SVGID_8_" d="M513 332c-1 0-1 0-2 0 -2 1-3 2-5 2 -3 0-5-2-5-6l0-31 12 0c2 0 3-1 3-4 0-2-1-4-3-4l-12 0 0-11c0-2-2-4-4-4 -3 0-4 1-4 4l0 11 -7 0c-2 0-3 2-3 4 0 2 1 4 3 4l7 0 0 31c0 10 6 13 13 13 4 0 6-1 9-2 1-1 2-2 2-3 0-1 0-1 0-2C516 333 515 332 513 332z"/></defs><clipPath id="SVGID_42_"><use xlink:href="#SVGID_8_"/></clipPath><linearGradient id="SVGID_43_" gradientUnits="userSpaceOnUse" x1="196" y1="310" x2="576" y2="310" gradientTransform="matrix(1 -0.0041 0.0041 1 -2.0785866 3.2618561)"><stop offset="0" class="g"/><stop offset="0.1003071" class="h"/><stop offset="0.2674995" class="i"/><stop offset="0.4810061" class="j"/><stop offset="0.7324083" class="k"/><stop offset="1" class="l"/></linearGradient><polygon points="575 373 195 375 195 251 574 249 " style="clip-path:url(#SVGID_42_);fill:url(#SVGID_43_)"/><defs><path id="SVGID_7_" d="M752 310l-6-1c-8-2-9-3-9-8 0-4 3-7 11-7 5 0 9 2 10 6 0 2 2 2 4 2 0 0 1 0 1 0 2 0 3-2 3-3 0 0 0-1 0-1 -2-7-9-11-19-11 -12 0-19 6-19 14 0 9 5 13 16 15l5 1c8 2 11 4 11 9 0 5-5 8-12 8 -7 0-11-3-13-8 -1-2-2-2-4-2 0 0-1 0-1 0 -2 0-3 2-3 3 0 0 0 1 0 1 2 8 9 13 21 13 13 0 20-7 20-15C769 316 764 313 752 310z"/></defs><clipPath id="SVGID_44_"><use xlink:href="#SVGID_7_"/></clipPath><linearGradient id="SVGID_45_" gradientUnits="userSpaceOnUse" x1="585" y1="312" x2="917" y2="312" gradientTransform="matrix(1 -0.0041 0.0041 1 -2.0785866 3.2618561)"><stop offset="0" class="a"/><stop offset="0.0849363" class="m"/><stop offset="0.2265739" class="n"/><stop offset="0.4074027" class="o"/><stop offset="0.6204275" class="p"/><stop offset="0.8577301" class="q"/><stop offset="1" class="r"/></linearGradient><polygon points="916 374 584 375 584 249 916 248 " style="clip-path:url(#SVGID_44_);fill:url(#SVGID_45_)"/><defs><path id="SVGID_6_" d="M783 288c-3 0-4 1-4 4l0 45c0 2 2 4 4 4 2 0 4-1 4-4l0-45C788 290 786 288 783 288z"/></defs><clipPath id="SVGID_46_"><use xlink:href="#SVGID_6_"/></clipPath><linearGradient id="SVGID_47_" gradientUnits="userSpaceOnUse" x1="585" y1="312" x2="917" y2="312" gradientTransform="matrix(1 -0.0041 0.0041 1 -2.0785866 3.2618561)"><stop offset="0" class="a"/><stop offset="0.0849363" class="m"/><stop offset="0.2265739" class="n"/><stop offset="0.4074027" class="o"/><stop offset="0.6204275" class="p"/><stop offset="0.8577301" class="q"/><stop offset="1" class="r"/></linearGradient><polygon points="916 374 584 375 584 249 916 248 " style="clip-path:url(#SVGID_46_);fill:url(#SVGID_47_)"/><defs><path id="SVGID_5_" d="M783 268c-3 0-6 3-6 6 0 4 3 6 6 6 3 0 6-3 6-6C789 270 787 268 783 268z"/></defs><clipPath id="SVGID_48_"><use xlink:href="#SVGID_5_"/></clipPath><linearGradient id="SVGID_49_" gradientUnits="userSpaceOnUse" x1="585" y1="312" x2="917" y2="312" gradientTransform="matrix(1 -0.0041 0.0041 1 -2.0785866 3.2618561)"><stop offset="0" class="a"/><stop offset="0.0849363" class="m"/><stop offset="0.2265739" class="n"/><stop offset="0.4074027" class="o"/><stop offset="0.6204275" class="p"/><stop offset="0.8577301" class="q"/><stop offset="1" class="r"/></linearGradient><polygon points="916 374 584 375 584 249 916 248 " style="clip-path:url(#SVGID_48_);fill:url(#SVGID_49_)"/><defs><path id="SVGID_4_" d="M883 287c-9 0-14 4-17 11 0-2 0-3 0-4l0-2c0-2-2-4-4-4 -3 0-4 1-4 4l0 45c0 2 2 4 4 4 2 0 4-1 4-4l0-26c0-4 1-6 3-9 3-4 7-7 12-7 7 0 10 4 10 12l0 29c0 2 2 4 4 4 2 0 4-1 4-4l0-31C899 294 893 287 883 287z"/></defs><clipPath id="SVGID_50_"><use xlink:href="#SVGID_4_"/></clipPath><linearGradient id="SVGID_51_" gradientUnits="userSpaceOnUse" x1="585" y1="312" x2="917" y2="312" gradientTransform="matrix(1 -0.0041 0.0041 1 -2.0785866 3.2618561)"><stop offset="0" class="a"/><stop offset="0.0849363" class="m"/><stop offset="0.2265739" class="n"/><stop offset="0.4074027" class="o"/><stop offset="0.6204275" class="p"/><stop offset="0.8577301" class="q"/><stop offset="1" class="r"/></linearGradient><polygon points="916 374 584 375 584 249 916 248 " style="clip-path:url(#SVGID_50_);fill:url(#SVGID_51_)"/><defs><path id="SVGID_3_" d="M840 288c-3 0-4 1-4 3l0 3c0 1 0 3 0 4 -3-6-8-10-16-10 -14 0-22 11-22 26 0 15 9 25 22 25 8 0 13-4 16-10 0 1 0 3 0 4 0 14-4 19-16 19 -6 0-10-2-13-6 -1-1-2-1-3-1 -1 0-2 0-3 1 -1 1-2 2-2 3 0 1 0 1 1 2 4 4 10 8 20 8 12 0 23-5 23-26l0-42C844 289 843 288 840 288zM822 333c-9 0-15-7-15-19 0-12 5-19 15-19 9 0 15 8 15 19C837 325 831 333 822 333z"/></defs><clipPath id="SVGID_52_"><use xlink:href="#SVGID_3_"/></clipPath><linearGradient id="SVGID_53_" gradientUnits="userSpaceOnUse" x1="585" y1="312" x2="917" y2="312" gradientTransform="matrix(1 -0.0041 0.0041 1 -2.0785866 3.2618561)"><stop offset="0" class="a"/><stop offset="0.0849363" class="m"/><stop offset="0.2265739" class="n"/><stop offset="0.4074027" class="o"/><stop offset="0.6204275" class="p"/><stop offset="0.8577301" class="q"/><stop offset="1" class="r"/></linearGradient><polygon points="916 374 584 375 584 249 916 248 " style="clip-path:url(#SVGID_52_);fill:url(#SVGID_53_)"/><defs><path id="SVGID_2_" d="M634 269l-16 0c-6 0-9 3-9 10L609 331c0 7 3 10 9 10l16 0c20 0 32-14 32-37C666 282 654 269 634 269zM634 332l-14 0c-2 0-3-1-3-3l0-49c0-2 1-3 3-3l14 0c15 0 23 10 23 27C657 322 649 332 634 332z"/></defs><clipPath id="SVGID_54_"><use xlink:href="#SVGID_2_"/></clipPath><linearGradient id="SVGID_55_" gradientUnits="userSpaceOnUse" x1="585" y1="312" x2="917" y2="312" gradientTransform="matrix(1 -0.0041 0.0041 1 -2.0785866 3.2618561)"><stop offset="0" class="a"/><stop offset="0.0849363" class="m"/><stop offset="0.2265739" class="n"/><stop offset="0.4074027" class="o"/><stop offset="0.6204275" class="p"/><stop offset="0.8577301" class="q"/><stop offset="1" class="r"/></linearGradient><polygon points="916 374 584 375 584 249 916 248 " style="clip-path:url(#SVGID_54_);fill:url(#SVGID_55_)"/><defs><path id="SVGID_1_" d="M720 311c0 0 0 0 0-1 -1-12-9-22-22-22 -15 0-23 11-23 27 0 16 9 26 24 26 12 0 17-6 20-12 0-1 0-1 0-2 0-2-1-3-3-3 -1 0-1 0-2 0 -1 0-2 1-3 2 -2 5-6 8-12 8 -10 0-15-7-16-18l32 0C719 316 720 314 720 311zM711 309l-27 0c1-9 6-15 15-15 8 0 12 7 14 13 0 0 0 0 0 0C712 309 712 309 711 309z"/></defs><clipPath id="SVGID_56_"><use xlink:href="#SVGID_1_"/></clipPath><linearGradient id="SVGID_57_" gradientUnits="userSpaceOnUse" x1="585" y1="312" x2="917" y2="312" gradientTransform="matrix(1 -0.0041 0.0041 1 -2.0785866 3.2618561)"><stop offset="0" class="a"/><stop offset="0.0849363" class="m"/><stop offset="0.2265739" class="n"/><stop offset="0.4074027" class="o"/><stop offset="0.6204275" class="p"/><stop offset="0.8577301" class="q"/><stop offset="1" class="r"/></linearGradient><polygon points="916 374 584 375 584 249 916 248 " style="clip-path:url(#SVGID_56_);fill:url(#SVGID_57_)"/></svg>